<svg width="1216" height="169" viewBox="0 0 1216 169" fill="none" xmlns="http://www.w3.org/2000/svg">
<path fill-rule="evenodd" clip-rule="evenodd" d="M688.94 152.919C694.989 152.919 700.41 148.744 701.531 142.491C702.697 135.989 703.307 129.279 703.307 122.42C703.307 62.9711 657.493 14.7779 600.98 14.7779C544.466 14.7779 498.653 62.9711 498.653 122.42C498.653 129.279 499.263 135.989 500.429 142.491C501.55 148.744 506.971 152.919 513.019 152.919H688.94Z" fill="#FC7A1D"/>
<path d="M3.44836 146.097V50.5921H89.2891V76.856H34.9423V89.8174H86.9015V112.557H34.9423V146.097H3.44836Z" fill="black"/>
<path d="M98.6123 146.097V50.5921H130.106V146.097H98.6123Z" fill="black"/>
<path d="M238.672 146.097H207.747L194.785 121.425H170.909V146.097H139.415V50.5921H194.103C220.594 50.5921 235.489 61.9618 235.489 87.0887C235.489 99.9364 229.69 109.032 221.618 114.717L238.672 146.097ZM170.909 76.7423V97.8898H191.943C199.902 97.8898 203.995 94.0242 203.995 87.3161C203.995 80.608 199.902 76.7423 191.943 76.7423H170.909Z" fill="black"/>
<path d="M288.318 149.281C255.346 149.167 239.77 138.934 240.566 114.148H268.876C269.217 120.629 274.675 124.608 288.318 124.722C300.37 124.836 305.941 121.425 305.941 116.991C305.941 113.921 304.236 110.738 294.913 109.373L282.633 107.44C264.556 104.484 242.84 102.324 242.84 77.8793C242.84 59.0057 258.189 47.4086 288.546 47.4086C315.946 47.4086 335.047 55.0263 334.479 82.3134H306.396C305.259 75.9464 299.915 71.9671 287.863 71.9671C277.403 71.9671 273.083 75.1506 273.083 79.471C273.083 82.1997 274.788 85.4969 282.065 86.6339L292.184 88.3393C311.171 91.5228 337.208 92.0913 337.208 118.241C337.208 139.048 321.063 149.394 288.318 149.281Z" fill="black"/>
<path d="M440.666 50.5921V76.856H406.33V146.097H374.836V76.856H340.5V50.5921H440.666Z" fill="black"/>
<path d="M761.861 146.097V50.5921H793.355V119.833H844.291V146.097H761.861Z" fill="black"/>
<path d="M853.561 146.097V50.5921H885.055V146.097H853.561Z" fill="black"/>
<path d="M997.145 93.342V146.097H980.318L979.863 133.477C973.269 142.573 961.331 149.281 944.504 149.281C915.17 149.281 892.658 128.929 892.658 98.3446C892.658 67.7603 914.033 47.4086 947.232 47.4086C969.858 47.4086 992.938 58.3235 996.69 84.0189H965.424C963.491 79.2436 957.238 74.5821 947.915 74.5821C933.816 74.5821 923.925 83.9052 923.925 98.3446C923.925 112.784 934.044 122.107 947.005 122.107C951.667 122.107 963.605 120.857 966.788 109.714H945.754V93.342H997.145Z" fill="black"/>
<path d="M1075.54 50.5921H1107.03V146.097H1075.54V111.533H1038.48V146.097H1006.98V50.5921H1038.48V85.1558H1075.54V50.5921Z" fill="black"/>
<path d="M1216 50.5921V76.856H1181.66V146.097H1150.17V76.856H1115.83V50.5921H1216Z" fill="black"/>
</svg>
