<?xml version="1.0" encoding="utf-8"?><svg xmlns="http://www.w3.org/2000/svg" xmlns:xlink="http://www.w3.org/1999/xlink"><symbol viewBox="0 0 32 32" id="ArrowRight" xmlns="http://www.w3.org/2000/svg"><path d="M27.7075 16.7074L18.7075 25.7074C18.5199 25.8951 18.2654 26.0005 18 26.0005C17.7346 26.0005 17.4801 25.8951 17.2925 25.7074C17.1049 25.5198 16.9994 25.2653 16.9994 24.9999C16.9994 24.7346 17.1049 24.4801 17.2925 24.2924L24.5863 16.9999H5C4.73478 16.9999 4.48043 16.8946 4.29289 16.7071C4.10536 16.5195 4 16.2652 4 15.9999C4 15.7347 4.10536 15.4804 4.29289 15.2928C4.48043 15.1053 4.73478 14.9999 5 14.9999H24.5863L17.2925 7.70745C17.1049 7.5198 16.9994 7.26531 16.9994 6.99995C16.9994 6.73458 17.1049 6.48009 17.2925 6.29245C17.4801 6.1048 17.7346 5.99939 18 5.99939C18.2654 5.99939 18.5199 6.1048 18.7075 6.29245L27.7075 15.2924C27.8005 15.3853 27.8742 15.4956 27.9246 15.617C27.9749 15.7384 28.0008 15.8685 28.0008 15.9999C28.0008 16.1314 27.9749 16.2615 27.9246 16.3829C27.8742 16.5043 27.8005 16.6146 27.7075 16.7074Z"/></symbol><symbol viewBox="0 0 20 20" id="ArrowUpRight" xmlns="http://www.w3.org/2000/svg"><path d="M15.625 5V13.125C15.625 13.2908 15.5591 13.4497 15.4419 13.5669C15.3247 13.6842 15.1657 13.75 15 13.75C14.8342 13.75 14.6753 13.6842 14.558 13.5669C14.4408 13.4497 14.375 13.2908 14.375 13.125V6.50859L5.44217 15.4422C5.32489 15.5595 5.16583 15.6253 4.99998 15.6253C4.83413 15.6253 4.67507 15.5595 4.55779 15.4422C4.44052 15.3249 4.37463 15.1659 4.37463 15C4.37463 14.8341 4.44052 14.6751 4.55779 14.5578L13.4914 5.625H6.87498C6.70922 5.625 6.55025 5.55915 6.43304 5.44194C6.31583 5.32473 6.24998 5.16576 6.24998 5C6.24998 4.83424 6.31583 4.67527 6.43304 4.55806C6.55025 4.44085 6.70922 4.375 6.87498 4.375H15C15.1657 4.375 15.3247 4.44085 15.4419 4.55806C15.5591 4.67527 15.625 4.83424 15.625 5Z"/></symbol><symbol viewBox="0 0 48 8" id="Dots" xmlns="http://www.w3.org/2000/svg"><circle opacity="0.5" cx="4" cy="4" r="4"/><circle opacity="0.5" cx="24" cy="4" r="4"/><circle opacity="0.5" cx="44" cy="4" r="4"/></symbol></svg>