<?xml version="1.0" encoding="utf-8"?><svg viewBox="0 0 48 32" xmlns="http://www.w3.org/2000/svg" xmlns:xlink="http://www.w3.org/1999/xlink"><style>:root>svg{display:none}:root>svg:target{display:block}</style><svg fill="none" viewBox="0 0 32 32" id="ArrowRight" xmlns="http://www.w3.org/2000/svg"><path d="m27.707 16.707-9 9a1 1 0 1 1-1.415-1.415L24.587 17H5a1 1 0 1 1 0-2h19.586l-7.293-7.293a1 1 0 0 1 1.415-1.415l9 9a1.001 1.001 0 0 1 0 1.415Z" fill="#000"/></svg><svg fill="none" viewBox="0 0 20 20" id="ArrowUpRight" xmlns="http://www.w3.org/2000/svg"><path d="M15.625 5v8.125a.625.625 0 0 1-1.25 0V6.509l-8.933 8.933a.625.625 0 0 1-.884-.884l8.933-8.933H6.875a.625.625 0 0 1 0-1.25H15a.625.625 0 0 1 .625.625Z" fill="#fff"/></svg><svg fill="none" viewBox="0 0 48 8" id="Dots" xmlns="http://www.w3.org/2000/svg"><circle opacity=".5" cx="4" cy="4" r="4" fill="#fff"/><circle opacity=".5" cx="24" cy="4" r="4" fill="#fff"/><circle opacity=".5" cx="44" cy="4" r="4" fill="#fff"/></svg></svg>